<svg width="128" height="60" viewBox="0 0 128 60" fill="none" xmlns="http://www.w3.org/2000/svg">
<path fill-rule="evenodd" clip-rule="evenodd" d="M7.84296 0.895425C11.1804 0.0136901 14.9645 0.143366 17.6506 0.641812C22.7489 1.58787 27.8369 4.31606 31.6621 8.16779C35.4919 12.0242 38.1578 17.118 38.1514 22.808C38.1488 25.1186 37.5543 27.6515 36.5478 30.1157C37.9186 29.5863 39.341 28.961 40.6517 28.2312C43.4761 26.6582 45.2094 24.9151 45.4752 23.1027C45.4888 23.01 45.4991 22.9351 45.5068 22.8764C45.5111 22.8185 45.5158 22.7658 45.5206 22.7197C45.5237 22.6903 45.5277 22.6555 45.5327 22.6195C45.535 22.603 45.5392 22.5739 45.5455 22.5394C45.5485 22.5228 45.5541 22.4925 45.5627 22.4552C45.566 22.4408 45.5895 22.3334 45.64 22.2048L45.6415 22.2009C45.6567 22.1614 45.7458 21.9297 45.946 21.6983C46.0448 21.5842 46.3423 21.2659 46.8623 21.1415C47.5211 20.9839 48.0938 21.231 48.4402 21.5427C48.717 21.7919 48.8394 22.063 48.8811 22.1613C48.9342 22.2868 48.9613 22.3922 48.9745 22.4488C49.001 22.5633 49.0098 22.6551 49.0129 22.6902C49.02 22.7704 49.0199 22.8338 49.0198 22.8537C49.0198 22.8696 49.0195 22.8839 49.0192 22.8961C49.0189 22.906 49.0186 22.9144 49.0183 22.9211C49.0163 22.9732 49.0122 23.02 49.01 23.0445C49.0059 23.0903 49.0001 23.1442 48.9928 23.2055C48.9866 23.3254 48.9832 23.5003 48.9948 23.693C49.0082 23.9181 49.0391 24.1162 49.0826 24.2622L49.1215 24.3927C49.7273 26.4257 50.218 27.991 51.0211 29.0427C51.3873 29.5223 51.7881 29.8466 52.2668 30.045C52.7514 30.246 53.4319 30.3658 54.4259 30.2541C60.8562 29.532 66.8985 25.6675 71.8797 21.1899C72.2226 20.8817 72.5758 20.524 72.9771 20.1127C73.0119 20.0771 73.0471 20.041 73.0826 20.0045C73.4436 19.6341 73.8414 19.2261 74.2551 18.8361C75.1524 17.9905 76.2826 17.0726 77.6836 16.6002C79.1343 16.1109 80.3885 16.6227 81.2802 17.1905C81.9152 17.5948 82.5802 18.1749 83.141 18.6641C83.3045 18.8067 83.4592 18.9415 83.6016 19.0621C85.055 20.2919 86.1049 20.8664 87.5473 20.3634C88.1377 20.1576 89.1207 19.4969 90.5122 18.4385C90.8524 18.1798 91.2112 17.902 91.5821 17.615C92.6042 16.824 93.7174 15.9624 94.7822 15.2329C96.1838 14.2728 97.8336 13.2975 99.3915 13.0829C100.231 12.9673 101.183 13.0528 102.044 13.6119C102.897 14.1658 103.42 15.0279 103.724 15.9856C103.982 16.7959 104.195 17.5412 104.382 18.2012L104.412 18.3075C104.589 18.9321 104.739 19.4591 104.889 19.9252C105.227 20.9687 105.472 21.3557 105.652 21.5177C105.719 21.5779 105.916 21.7561 106.757 21.6733C107.656 21.5848 108.998 21.2224 111.06 20.4521C115.334 18.8554 118.547 16.0387 120.771 12.0124C121.253 11.1401 121.69 10.3836 122.09 9.87219C122.28 9.62887 122.578 9.28334 122.994 9.04322C123.504 8.7487 124.258 8.59031 125.01 8.9866C125.585 9.28995 125.884 9.7903 126.021 10.0472C126.183 10.3505 126.309 10.6918 126.414 11.0115C126.598 11.5714 126.794 12.3142 127.016 13.1566C127.046 13.274 127.078 13.3934 127.11 13.5145C128.116 17.3238 128.103 20.5118 127.87 23.6042C127.802 24.5108 127.718 25.3898 127.634 26.266C127.429 28.4056 127.225 30.5295 127.26 33.0033C127.26 33.0054 127.26 33.0074 127.261 33.0096C127.264 33.0602 127.268 33.1264 127.271 33.2068C127.276 33.3672 127.278 33.5854 127.264 33.8493C127.238 34.3746 127.152 35.0958 126.914 35.9091C126.434 37.5575 125.331 39.5725 122.928 41.0368C120.106 42.7561 116.495 43.1418 113.187 43.2215C111.796 43.2551 110.389 43.2339 109.061 43.2139C108.787 43.2098 108.515 43.2057 108.248 43.2021C106.664 43.1811 105.23 43.1794 103.977 43.2806C99.2245 43.6645 92.9143 44.5099 86.5489 45.3992C85.4718 45.5497 84.393 45.7015 83.3206 45.8523C78.0844 46.589 72.9992 47.3044 68.9892 47.7475C59.0821 48.8421 49.3189 50.2528 39.6164 52.3569C39.2957 52.4265 38.7788 52.4917 38.3192 52.5492C38.2401 52.559 38.1602 52.569 38.0798 52.5789C37.6439 52.6331 37.1923 52.6891 36.7763 52.7498C36.5674 52.7803 36.3884 52.8092 36.2398 52.8356C35.7038 53.334 34.8889 53.4597 34.2108 53.0902C34.0776 53.0177 33.635 52.7685 33.3782 52.2258C33.2273 51.907 33.1594 51.5219 33.2343 51.1199C33.3049 50.7405 33.4805 50.4621 33.6265 50.2862C33.8882 49.9708 34.195 49.815 34.3134 49.7577C34.4696 49.6821 34.6211 49.6295 34.7381 49.5932C35.1734 49.4582 35.7651 49.3603 36.271 49.2865C36.7276 49.2199 37.2229 49.1584 37.6574 49.1045C37.7355 49.0948 37.8118 49.0853 37.8854 49.0761C38.4161 49.0099 38.7444 48.9647 38.8746 48.9364C48.7334 46.7984 58.624 45.3714 68.6048 44.2686C72.5578 43.8319 77.5772 43.1258 82.814 42.3891C83.8908 42.2376 84.9768 42.0849 86.0646 41.9329C92.4136 41.0458 98.8243 40.1855 103.695 39.792C105.131 39.6759 106.715 39.6815 108.295 39.7024C108.575 39.7062 108.855 39.7104 109.135 39.7146C110.462 39.7344 111.787 39.7543 113.103 39.7225C116.342 39.6444 119.133 39.2504 121.106 38.0479C122.624 37.123 123.268 35.9108 123.554 34.9293C123.701 34.4277 123.753 33.9833 123.769 33.6717C123.777 33.5172 123.775 33.3991 123.773 33.3279C123.772 33.2924 123.77 33.269 123.769 33.2589L123.77 33.2645L123.77 33.2675L123.771 33.2691C123.77 33.2645 123.77 33.26 123.769 33.2555C123.769 33.2548 123.769 33.2542 123.769 33.2539L123.769 33.2589C123.769 33.2575 123.769 33.2564 123.769 33.2555C123.765 33.2089 123.762 33.162 123.761 33.1151C123.719 30.4091 123.953 27.9738 124.165 25.7534C124.245 24.9202 124.322 24.1172 124.38 23.3416C124.597 20.4538 124.594 17.696 123.726 14.408C123.694 14.2884 123.664 14.1727 123.634 14.0607C123.702 13.943 123.769 13.8244 123.835 13.705C124.077 13.2661 124.281 12.9082 124.455 12.6198C124.633 12.3256 124.761 12.1385 124.849 12.0259C124.887 11.977 124.905 11.9579 124.905 11.9578L124.905 11.9585C124.901 11.9617 124.848 12.0142 124.745 12.0738C124.637 12.1363 124.439 12.2266 124.167 12.2465C123.877 12.2677 123.603 12.2013 123.378 12.0826C123.171 11.9739 123.05 11.845 122.997 11.7815C122.943 11.717 122.924 11.6774 122.932 11.6931C122.953 11.7316 123.006 11.8496 123.089 12.1042C123.169 12.3474 123.259 12.6571 123.366 13.0501C123.406 13.1971 123.447 13.3516 123.49 13.5146C123.534 13.6815 123.581 13.8573 123.63 14.0432C123.631 14.0491 123.633 14.0549 123.634 14.0607C121.023 18.6116 117.235 21.8813 112.285 23.7308C110.174 24.5193 108.476 25.021 107.1 25.1565C105.668 25.2975 104.355 25.0602 103.309 24.118C102.377 23.2782 101.907 22.0775 101.559 21.0022C101.388 20.4727 101.222 19.8866 101.051 19.2846L101.015 19.1563C100.828 18.4981 100.628 17.7992 100.389 17.0461C100.275 16.6863 100.165 16.5717 100.14 16.5491C100.14 16.5493 100.141 16.5495 100.141 16.5497C100.147 16.5528 100.15 16.5538 100.15 16.5536C100.15 16.5533 100.148 16.5518 100.141 16.5497C100.14 16.5491 100.139 16.5483 100.138 16.5475C100.132 16.5436 100.133 16.5432 100.14 16.5491C100.114 16.5411 100.036 16.5272 99.869 16.5502C99.2104 16.6409 98.1662 17.1573 96.7602 18.1204C95.7857 18.788 94.7988 19.5518 93.8038 20.3219C93.4141 20.6235 93.0231 20.926 92.6311 21.2242C91.3521 22.1971 89.915 23.2445 88.6998 23.6683C85.3261 24.8447 82.8943 23.0485 81.3407 21.7339C81.0891 21.521 80.8673 21.3278 80.6657 21.1524C80.1683 20.7193 79.7941 20.3936 79.4002 20.1427C78.9399 19.8496 78.8205 19.9077 78.8037 19.9159C78.8029 19.9162 78.8024 19.9165 78.802 19.9166C78.1293 20.1435 77.4455 20.6388 76.6558 21.3831C76.2988 21.7195 75.9524 22.0748 75.5824 22.4542C75.5492 22.4883 75.5159 22.5225 75.4823 22.5569C75.0871 22.962 74.6591 23.3977 74.2195 23.7928C69.0279 28.4595 62.3161 32.89 54.8165 33.7323C53.362 33.8956 52.0658 33.7506 50.9264 33.2782C49.781 32.8034 48.9106 32.046 48.2393 31.1669C47.5488 30.2626 47.0418 29.183 46.6344 28.0891C45.4089 29.3967 43.8591 30.4511 42.3545 31.289C39.5683 32.8406 36.4165 33.9342 34.1834 34.6437C31.5592 38.7152 27.7206 42.3524 23.3432 43.45C22.8913 43.5633 22.4145 43.5087 21.9974 43.2901C21.6242 43.0945 21.3956 42.8196 21.2685 42.6331C21.0293 42.2817 20.919 41.8972 20.8615 41.6641C20.7341 41.1478 20.664 40.4841 20.6154 39.8146C20.5432 38.8194 20.5031 37.5427 20.4607 36.1934C17.6257 35.8095 14.8638 34.9154 12.3661 33.3686C11.5304 34.8969 10.7336 36.4601 9.98978 37.9192C9.69415 38.4991 9.40691 39.0625 9.12896 39.6008C8.52415 40.772 7.9519 41.8456 7.44591 42.6637C7.19413 43.0708 6.93126 43.4599 6.66401 43.7812C6.44762 44.0413 6.03424 44.5036 5.43912 44.7327C4.8259 44.9687 4.18098 44.8539 3.70133 44.5137C3.32612 44.2475 3.13911 43.909 3.05983 43.749C2.89056 43.4074 2.81005 43.0309 2.76361 42.7711C2.66044 42.194 2.60031 41.4171 2.56304 40.5613C2.48719 38.8199 2.49492 36.4421 2.54289 33.9453C2.63366 29.2216 2.87141 23.9438 2.99357 21.4237C1.0806 17.1384 -0.272982 12.0838 0.446122 7.96895C1.17077 3.82234 4.51157 1.77555 7.84296 0.895425ZM6.24201 27.3017C6.16103 29.4292 6.08505 31.785 6.04225 34.0125C6.01479 35.4413 6.00126 36.8054 6.00822 38.016C6.01185 38.009 6.01548 38.002 6.0191 37.9949C6.28026 37.4892 6.55592 36.9484 6.84387 36.3834C7.66327 34.7758 8.58215 32.9729 9.5494 31.2282C8.97324 30.6969 8.42139 30.1213 7.89675 29.4997C7.34412 28.845 6.78813 28.1058 6.24201 27.3017ZM11.3789 28.129C11.1026 27.8478 10.8332 27.5524 10.5713 27.2422C9.2162 25.6367 7.75672 23.3292 6.53151 20.7406C6.54483 20.4755 6.55457 20.2864 6.55976 20.1855L6.56157 20.1505C6.66284 18.1812 6.85104 16.2123 7.04351 14.1987C7.06298 13.995 7.08248 13.7909 7.10195 13.5863C7.20363 12.5177 7.30395 11.4372 7.3886 10.3488C8.13398 9.9295 8.47825 9.01579 8.16134 8.19442C8.1081 8.05642 8.03545 7.77253 7.95678 7.35662C7.90065 7.05986 7.85406 6.76802 7.81001 6.49208C7.79512 6.39882 7.78052 6.30738 7.76594 6.21818C7.74023 6.06085 7.70947 5.87872 7.67612 5.72936C7.66246 5.66818 7.63078 5.52953 7.5746 5.38177C7.55334 5.32584 7.48004 5.13368 7.32745 4.92945C7.31313 4.91029 7.27512 4.8603 7.21427 4.79512C7.67985 4.59569 8.18842 4.42424 8.73696 4.27932C11.4516 3.56213 14.6935 3.65282 17.0121 4.08307C21.3795 4.89351 25.8323 7.26445 29.1786 10.6341C32.5203 13.999 34.6565 18.2488 34.6514 22.8041C34.6485 25.3988 33.6389 28.6466 31.8847 31.6925C29.2509 32.4766 26.5101 32.9223 23.8422 32.9184C23.7672 31.3358 23.6539 29.718 23.453 28.2854C23.3177 27.3207 23.1356 26.3861 22.8779 25.5761C22.6336 24.8083 22.2592 23.9459 21.6166 23.3209C20.6394 22.3704 19.4422 21.8983 18.1357 22.0574C16.9354 22.2035 15.8883 22.8547 15.0296 23.5969C13.7474 24.7052 12.5152 26.3452 11.3789 28.129ZM14.1234 30.3394C16.0016 31.5196 18.1001 32.2629 20.3236 32.6336C20.252 31.2626 20.1499 29.9333 19.9869 28.7716C19.8653 27.9046 19.7168 27.1848 19.5426 26.6372C19.4562 26.3658 19.3719 26.1634 19.2965 26.0196C19.2263 25.8857 19.1808 25.8349 19.1763 25.83C19.1759 25.8295 19.1759 25.8296 19.1763 25.83C18.847 25.5096 18.6688 25.5183 18.5587 25.5317C18.3423 25.558 17.9314 25.715 17.3183 26.2449C16.3277 27.1011 15.2436 28.5443 14.1234 30.3394ZM23.9697 36.4183C24.0068 37.5932 24.0418 38.6375 24.1006 39.4825C25.7044 38.7464 27.2781 37.5378 28.7087 36.0123C27.1414 36.2703 25.5526 36.4129 23.9697 36.4183ZM24.2752 40.8802C24.2751 40.8804 24.2732 40.8755 24.27 40.8646C24.2737 40.8745 24.2753 40.8799 24.2752 40.8802ZM4.03795 7.97234C3.97879 9.1064 3.89064 10.2449 3.78945 11.3941C3.71447 10.3817 3.74371 9.43071 3.89387 8.57147C3.93005 8.36447 3.97818 8.16481 4.03795 7.97234ZM3.88538 41.6385C3.88539 41.638 3.89073 41.6326 3.90136 41.6236C3.89068 41.6344 3.88537 41.6389 3.88538 41.6385ZM35.9341 50.0444C35.9126 50.0315 35.8969 50.023 35.8886 50.0186L35.8852 50.0168C35.9017 50.0257 35.918 50.0349 35.9341 50.0444ZM84.3973 5.10647C84.4099 5.52124 84.4201 5.85488 84.4513 6.14711C84.5537 7.10817 83.8576 7.97028 82.8966 8.0727C81.9355 8.17511 81.0734 7.47904 80.971 6.51799C80.9243 6.07985 80.9088 5.56007 80.8957 5.11991C80.8932 5.03563 80.8907 4.95426 80.8882 4.87695C80.3231 4.96927 79.7242 4.78279 79.3101 4.3278C78.6596 3.61301 78.7117 2.5062 79.4265 1.85566C79.7879 1.52672 80.1735 1.23057 80.5833 1.02293C80.9859 0.818907 81.5559 0.628312 82.2074 0.738396C83.6716 0.985799 84.0736 2.3632 84.1816 2.80794C84.3305 3.42175 84.3642 4.13549 84.3833 4.67556C84.3888 4.82866 84.3932 4.97184 84.3973 5.10647ZM68.1498 59.5425C68.1106 59.5606 67.9804 59.6208 67.8585 59.6612C66.9411 59.9652 65.9509 59.4678 65.647 58.5504C65.3527 57.6623 65.8093 56.7061 66.671 56.3701C66.6776 56.3671 66.6859 56.3633 66.6961 56.3587C66.7438 56.3367 66.8134 56.304 66.9057 56.2599C67.0415 56.1952 67.2097 56.1141 67.4035 56.0206C67.4731 55.9871 67.5459 55.9519 67.6218 55.9154C68.1871 55.643 68.9031 55.2999 69.5225 55.0202C69.8304 54.8811 70.133 54.7494 70.3902 54.6477C70.5178 54.5972 70.6528 54.5468 70.7821 54.5052C70.8737 54.4757 71.0976 54.4046 71.3514 54.3831L71.3573 54.3826C71.4445 54.375 71.8465 54.34 72.2861 54.5456C72.5614 54.6743 72.909 54.9266 73.1262 55.3697C73.3396 55.805 73.3264 56.2195 73.2736 56.4897C73.1868 56.9341 72.9504 57.2261 72.8951 57.2943L72.892 57.2981C72.8007 57.4111 72.7095 57.4991 72.649 57.5546C72.427 57.7583 72.0994 57.9917 71.7363 58.2361C71.3158 58.5191 70.8168 58.5952 70.3595 58.488C69.9462 58.6814 69.5187 58.8865 69.1408 59.0686C69.0681 59.1036 68.9969 59.1379 68.928 59.1711C68.7324 59.2655 68.555 59.351 68.4126 59.4189C68.3164 59.4648 68.2283 59.5064 68.1567 59.5393L68.1498 59.5425ZM71.8745 57.8309C71.8738 57.8313 71.8676 57.8332 71.8567 57.8361C71.8698 57.832 71.8754 57.8305 71.8745 57.8309Z" fill="#F8F9FA"/>
</svg>
